<svg width="18" height="18" viewBox="0 0 18 18" fill="none" xmlns="http://www.w3.org/2000/svg">
<path d="M9.00033 0.666687C4.40033 0.666687 0.666992 4.40002 0.666992 9.00002C0.666992 13.6 4.40033 17.3334 9.00033 17.3334C13.6003 17.3334 17.3337 13.6 17.3337 9.00002C17.3337 4.40002 13.6003 0.666687 9.00033 0.666687ZM8.16699 15.6084C4.87533 15.2 2.33366 12.4 2.33366 9.00002C2.33366 8.48335 2.40033 7.99169 2.50866 7.50835L6.50033 11.5V12.3334C6.50033 13.25 7.25033 14 8.16699 14V15.6084ZM13.917 13.4917C13.7003 12.8167 13.0837 12.3334 12.3337 12.3334H11.5003V9.83335C11.5003 9.37502 11.1253 9.00002 10.667 9.00002H5.66699V7.33335H7.33366C7.79199 7.33335 8.16699 6.95835 8.16699 6.50002V4.83335H9.83366C10.7503 4.83335 11.5003 4.08335 11.5003 3.16669V2.82502C13.942 3.81669 15.667 6.20835 15.667 9.00002C15.667 10.7334 15.0003 12.3084 13.917 13.4917Z" fill="#6A6A6A"/>
</svg>
